<svg width="28" height="29" viewBox="0 0 28 29" fill="none" xmlns="http://www.w3.org/2000/svg">
<g clip-path="url(#clip0_158_21252)">
<path d="M14.0194 28.5938C21.7612 28.5938 28.0368 22.3259 28.0368 14.5938C28.0368 6.86155 21.7612 0.59375 14.0194 0.59375C6.27755 0.59375 0.00195312 6.86155 0.00195312 14.5938C0.00195312 22.3259 6.27755 28.5938 14.0194 28.5938Z" fill="#EA3C4A"/>
<path d="M18.2423 20.2642C18.7143 20.7036 19.4795 20.7036 19.9515 20.2642C20.4235 19.8249 20.4235 19.1126 19.9515 18.6733L15.569 14.5938L19.9515 10.5142C20.4235 10.0749 20.4235 9.3626 19.9515 8.92326C19.4795 8.48392 18.7143 8.48392 18.2423 8.92326L13.8598 13.0028L9.47722 8.92325C9.00525 8.48392 8.24002 8.48392 7.76805 8.92325C7.29607 9.36259 7.29607 10.0749 7.76805 10.5142L12.1506 14.5938L7.76804 18.6733C7.29607 19.1126 7.29607 19.8249 7.76804 20.2642C8.24002 20.7036 9.00525 20.7036 9.47722 20.2642L13.8598 16.1847L18.2423 20.2642Z" fill="white"/>
</g>
<defs>
<clipPath id="clip0_158_21252">
<rect width="28" height="28" fill="white" transform="translate(0 0.59375)"/>
</clipPath>
</defs>
</svg>
