<svg width="20" height="20" viewBox="0 0 20 20" fill="none" xmlns="http://www.w3.org/2000/svg">
<path d="M13.2798 9.03C13.4123 8.88782 13.4845 8.69978 13.481 8.50548C13.4776 8.31118 13.3989 8.12579 13.2615 7.98838C13.1241 7.85096 12.9387 7.77225 12.7444 7.76882C12.5501 7.7654 12.362 7.83752 12.2198 7.97L9.24985 10.94L8.02985 9.72C7.88767 9.58752 7.69963 9.5154 7.50532 9.51882C7.31102 9.52225 7.12564 9.60096 6.98822 9.73838C6.85081 9.87579 6.7721 10.0612 6.76867 10.2555C6.76524 10.4498 6.83737 10.6378 6.96985 10.78L8.71985 12.53C8.86047 12.6704 9.0511 12.7493 9.24985 12.7493C9.4486 12.7493 9.63922 12.6704 9.77985 12.53L13.2798 9.03Z" fill="#C70A24"/>
<path fill-rule="evenodd" clip-rule="evenodd" d="M18 10C18 11.0506 17.7931 12.0909 17.391 13.0615C16.989 14.0321 16.3997 14.914 15.6569 15.6569C14.914 16.3997 14.0321 16.989 13.0615 17.391C12.0909 17.7931 11.0506 18 10 18C8.94943 18 7.90914 17.7931 6.93853 17.391C5.96793 16.989 5.08601 16.3997 4.34315 15.6569C3.60028 14.914 3.011 14.0321 2.60896 13.0615C2.20693 12.0909 2 11.0506 2 10C2 7.87827 2.84285 5.84344 4.34315 4.34315C5.84344 2.84285 7.87827 2 10 2C12.1217 2 14.1566 2.84285 15.6569 4.34315C17.1571 5.84344 18 7.87827 18 10ZM16.2857 10C16.2857 11.6671 15.6235 13.2659 14.4447 14.4447C13.2659 15.6235 11.6671 16.2857 10 16.2857C8.33293 16.2857 6.73413 15.6235 5.55533 14.4447C4.37653 13.2659 3.71429 11.6671 3.71429 10C3.71429 8.33293 4.37653 6.73413 5.55533 5.55533C6.73413 4.37653 8.33293 3.71429 10 3.71429C11.6671 3.71429 13.2659 4.37653 14.4447 5.55533C15.6235 6.73413 16.2857 8.33293 16.2857 10Z" fill="#C70A24"/>
</svg>
