<svg width="59" height="51" viewBox="0 0 59 51" fill="none" xmlns="http://www.w3.org/2000/svg">
<path d="M29.3471 50.5456C28.5156 50.5456 27.8181 50.2785 27.2547 49.7442C26.6912 49.2098 26.4105 48.5494 26.4124 47.7627C26.4124 46.9742 26.6942 46.3128 27.2576 45.7785C27.8211 45.2442 28.5176 44.9779 29.3471 44.9798H49.8901V25.2211C49.8901 22.5309 49.3521 20.0031 48.276 17.6376C47.2 15.2722 45.7326 13.2082 43.874 11.4457C42.0153 9.68314 39.8387 8.29168 37.3442 7.27128C34.8497 6.25087 32.184 5.74067 29.3471 5.74067C26.5102 5.74067 23.8445 6.25087 21.35 7.27128C18.8555 8.29168 16.679 9.68314 14.8203 11.4457C12.9617 13.2082 11.4943 15.2722 10.4182 17.6376C9.34217 20.0031 8.80414 22.5309 8.80414 25.2211V39.414C8.80414 40.2025 8.52339 40.8639 7.96188 41.3982C7.40037 41.9325 6.70289 42.1987 5.86943 42.1969C4.25534 42.1969 2.87309 41.6514 1.72268 40.5605C0.572274 39.4696 -0.00195149 38.1598 4.98254e-06 36.6311V31.0652C4.98254e-06 29.9984 0.269021 29.0597 0.807051 28.2489C1.34508 27.4381 2.0543 26.7767 2.93472 26.2647L3.15482 22.5773C3.59503 19.1914 4.61044 16.1302 6.20105 13.3937C7.79167 10.6572 9.7726 8.33806 12.1438 6.4364C14.5151 4.53474 17.1808 3.06165 20.1409 2.01713C23.1011 0.972608 26.1698 0.451275 29.3471 0.45313C32.5753 0.45313 35.6695 0.975391 38.6296 2.01991C41.5898 3.06443 44.2428 4.54866 46.5886 6.47258C48.9363 8.3965 50.9055 10.7156 52.4961 13.4299C54.0868 16.1441 55.1012 19.1701 55.5394 22.5077L55.7595 26.1255C56.64 26.543 57.3492 27.158 57.8872 27.9706C58.4252 28.7832 58.6943 29.6756 58.6943 30.6478V37.0485C58.6943 38.0689 58.4252 38.9733 57.8872 39.7618C57.3492 40.5503 56.64 41.1533 55.7595 41.5707V44.9798C55.7595 46.5104 55.1843 47.8212 54.0339 48.9121C52.8835 50.003 51.5023 50.5475 49.8901 50.5456H29.3471ZM20.543 31.0652C19.7115 31.0652 19.014 30.7981 18.4505 30.2637C17.8871 29.7294 17.6063 29.0689 17.6083 28.2823C17.6083 27.4938 17.89 26.8324 18.4535 26.2981C19.0169 25.7638 19.7134 25.4975 20.543 25.4994C21.3745 25.4994 22.072 25.7665 22.6354 26.3009C23.1989 26.8352 23.4797 27.4957 23.4777 28.2823C23.4777 29.0708 23.196 29.7322 22.6325 30.2665C22.069 30.8008 21.3725 31.0671 20.543 31.0652ZM38.1513 31.0652C37.3198 31.0652 36.6223 30.7981 36.0588 30.2637C35.4954 29.7294 35.2146 29.0689 35.2166 28.2823C35.2166 27.4938 35.4983 26.8324 36.0618 26.2981C36.6252 25.7638 37.3217 25.4975 38.1513 25.4994C38.9828 25.4994 39.6803 25.7665 40.2437 26.3009C40.8072 26.8352 41.0879 27.4957 41.086 28.2823C41.086 29.0708 40.8042 29.7322 40.2408 30.2665C39.6773 30.8008 38.9808 31.0671 38.1513 31.0652ZM11.8122 26.7517C11.6166 24.0152 12.0206 21.5337 13.0243 19.3074C14.0279 17.0811 15.373 15.1905 17.0595 13.6358C18.746 12.0829 20.6897 10.8891 22.8908 10.0542C25.0918 9.21932 27.2928 8.80188 29.4939 8.80188C33.9448 8.80188 37.7971 10.1358 41.0508 12.8037C44.3044 15.4716 46.2726 18.7981 46.9554 22.7833C42.3577 22.7387 38.2002 21.568 34.4829 19.2712C30.7656 16.9744 27.9531 13.9948 26.0456 10.3325C25.263 14.0894 23.6117 17.4178 21.0918 20.3176C18.5718 23.2174 15.4767 25.3621 11.8122 26.7517Z" fill="#D83603"/>
</svg>
