<svg width="50" height="58" viewBox="0 0 50 58" fill="none" xmlns="http://www.w3.org/2000/svg">
<path d="M0 28.824C0 21.3443 0 13.8647 0 6.385C0 2.47895 2.14861 0.484375 6.37869 0.484375C18.8227 0.484375 31.2444 0.484375 43.6885 0.484375C47.8066 0.484375 50 2.52051 50 6.34345C50 21.3859 50 36.4075 50 51.45C50 55.1898 47.7842 57.2259 43.7332 57.2259C31.2892 57.2259 18.8675 57.2259 6.42346 57.2259C2.10385 57.2259 0 55.2521 0 51.263C0 43.7833 0 36.3037 0 28.824ZM23.6347 27.6189C24.7986 27.6397 25.9624 27.4943 26.9919 27.0372C27.9767 26.6009 28.6258 26.8502 29.2748 27.5566C29.9463 28.263 30.6625 28.9279 31.4458 29.5512C32.6097 30.4654 34.2883 30.3823 35.3178 29.4473C36.3474 28.4916 36.4593 27.1203 35.5192 25.9776C35.0716 25.4374 34.5569 24.8972 33.9749 24.4609C32.7216 23.5467 32.4306 22.6117 32.9902 21.095C34.3778 17.4175 32.744 13.3452 29.2972 11.1013C25.8505 8.85745 21.2399 8.91978 17.8827 11.226C14.4584 13.5738 13.0483 17.6876 14.3912 21.4274C15.6893 25.0842 19.4494 27.6189 23.6347 27.6189ZM25.0448 39.2124C28.2229 39.2124 31.4011 39.2332 34.5792 39.1916C36.4816 39.1709 37.6902 37.8619 37.4888 36.2413C37.3098 34.8701 36.1907 33.9974 34.3778 33.9974C28.1558 33.9767 21.9114 33.9767 15.6893 33.9767C13.6974 33.9767 12.5336 34.9739 12.5112 36.553C12.4888 38.1944 13.6974 39.1916 15.7565 39.1916C18.8451 39.2124 21.9561 39.2124 25.0448 39.2124ZM20.188 46.9206C21.6428 46.9206 23.0976 46.9206 24.5524 46.9206C24.6419 46.9206 24.7314 46.9206 24.8209 46.9206C26.6786 46.8375 27.8424 45.8195 27.8201 44.282C27.7977 42.786 26.5891 41.7056 24.7538 41.6849C21.7099 41.6433 18.6661 41.6433 15.6222 41.6849C13.675 41.7056 12.5112 42.7445 12.5112 44.3443C12.5336 45.8818 13.6526 46.8791 15.5551 46.9206C17.0994 46.9414 18.6437 46.9206 20.188 46.9206Z" fill="#D83603"/>
</svg>
