<svg width="42" height="42" viewBox="0 0 42 42" fill="none" xmlns="http://www.w3.org/2000/svg">
<path d="M38.8758 0.0280151H3.12436C2.30317 0.0280151 1.51562 0.35423 0.934957 0.934896C0.354291 1.51556 0.0280762 2.30311 0.0280762 3.1243V38.8757C0.0280762 39.6969 0.354291 40.4845 0.934957 41.0651C1.51562 41.6458 2.30317 41.972 3.12436 41.972H38.8758C39.697 41.972 40.4845 41.6458 41.0652 41.0651C41.6459 40.4845 41.9721 39.6969 41.9721 38.8757V3.1243C41.9721 2.30311 41.6459 1.51556 41.0652 0.934896C40.4845 0.35423 39.697 0.0280151 38.8758 0.0280151ZM12.5297 33.7591C12.5297 34.8636 11.6343 35.7591 10.5297 35.7591H8.22355C7.11898 35.7591 6.22356 34.8636 6.22356 33.7591V17.7279C6.22356 16.6233 7.11899 15.7279 8.22356 15.7279H10.5297C11.6343 15.7279 12.5297 16.6233 12.5297 17.7279V33.7591ZM9.37227 12.952C8.65694 12.948 7.95884 12.7321 7.36606 12.3317C6.77329 11.9313 6.31241 11.3643 6.04158 10.7022C5.77076 10.0401 5.70213 9.31265 5.84436 8.6116C5.9866 7.91055 6.33331 7.26733 6.84075 6.76314C7.34819 6.25895 7.99362 5.91637 8.69557 5.77864C9.39752 5.64092 10.1245 5.71421 10.7849 5.98928C11.4452 6.26435 12.0093 6.72886 12.4059 7.32419C12.8025 7.91953 13.0138 8.619 13.0132 9.33434C13.02 9.81326 12.9302 10.2886 12.7494 10.7321C12.5685 11.1756 12.3002 11.5782 11.9604 11.9158C11.6206 12.2534 11.2164 12.5191 10.7717 12.6971C10.3271 12.8751 9.85113 12.9618 9.37227 12.952ZM35.7742 33.777C35.7739 34.8814 34.8785 35.7765 33.7742 35.7765H31.4704C30.3659 35.7765 29.4704 34.8811 29.4704 33.7765V24.8332C29.4704 21.6059 28.0985 20.6097 26.3275 20.6097C24.4575 20.6097 22.6225 22.0195 22.6225 24.9148V33.7765C22.6225 34.8811 21.7271 35.7765 20.6225 35.7765H18.3163C17.2118 35.7765 16.3163 34.8811 16.3163 33.7765V17.7425C16.3163 16.6379 17.2118 15.7425 18.3163 15.7425H20.9928C21.7593 15.7425 22.3807 16.3639 22.3807 17.1304V18.468C22.3807 18.4958 22.4033 18.5183 22.431 18.5183V18.5183C22.4502 18.5183 22.4673 18.5081 22.4759 18.4911C23.1024 17.2554 25.2271 15.1803 28.4568 15.1803C31.9754 15.1803 35.7766 17.2687 35.7766 23.3856L35.7742 33.777Z" fill="#0A66C2"/>
</svg>
