<svg width="54" height="54" viewBox="0 0 54 54" fill="none" xmlns="http://www.w3.org/2000/svg">
<path d="M0 53.1284V5.31285C0 3.85181 0.520659 2.60064 1.56198 1.55932C2.60329 0.518006 3.85358 -0.00176644 5.31284 4.51005e-06H47.8156C49.2766 4.51005e-06 50.5278 0.520663 51.5691 1.56198C52.6104 2.6033 53.1302 3.85359 53.1284 5.31285V37.1899C53.1284 38.6509 52.6078 39.9021 51.5664 40.9434C50.5251 41.9847 49.2748 42.5045 47.8156 42.5027H10.6257L0 53.1284ZM10.6257 31.8771H31.8771V26.5642H10.6257V31.8771ZM10.6257 23.9078H42.5027V18.595H10.6257V23.9078ZM10.6257 15.9385H42.5027V10.6257H10.6257V15.9385Z" fill="#D83603"/>
</svg>
