<svg width="42" height="42" viewBox="0 0 42 42" fill="none" xmlns="http://www.w3.org/2000/svg">
<path d="M20.9914 0.0280151C9.3969 0.0280151 0.0280762 9.41407 0.0280762 20.9914C0.0280762 29.8771 5.54929 37.4688 13.348 40.5227C13.1582 38.8663 13.0029 36.3128 13.417 34.5011C13.7966 32.862 15.8671 24.0798 15.8671 24.0798C15.8671 24.0798 15.2459 22.8203 15.2459 20.9741C15.2459 18.0582 16.9368 15.8843 19.0418 15.8843C20.8362 15.8843 21.6989 17.23 21.6989 18.8347C21.6989 20.6291 20.5601 23.3206 19.9562 25.8224C19.4559 27.9102 21.0087 29.6183 23.0619 29.6183C26.7887 29.6183 29.6529 25.6844 29.6529 20.0252C29.6529 15.0043 26.0468 11.5018 20.8879 11.5018C14.9181 11.5018 11.4156 15.9705 11.4156 20.5945C11.4156 22.3889 12.1057 24.3213 12.9684 25.3738C13.141 25.5809 13.1582 25.7707 13.1065 25.9777C12.9512 26.6334 12.5888 28.0654 12.5198 28.3588C12.4336 28.7383 12.2092 28.8246 11.8124 28.6348C9.22434 27.3925 7.60249 23.5622 7.60249 20.491C7.60249 13.8828 12.399 7.80947 21.4573 7.80947C28.7212 7.80947 34.3804 12.9856 34.3804 19.9216C34.3804 27.151 29.8254 32.9655 23.5105 32.9655C21.3883 32.9655 19.3868 31.8613 18.714 30.55C18.714 30.55 17.6615 34.5529 17.4027 35.5363C16.9368 37.3653 15.66 39.6427 14.7973 41.0403C16.7643 41.6442 18.8347 41.972 21.0087 41.972C32.586 41.972 41.9721 32.586 41.9721 21.0087C41.9548 9.41407 32.5687 0.0280151 20.9914 0.0280151Z" fill="#BD081C"/>
</svg>
