<svg width="51" height="52" viewBox="0 0 51 52" fill="none" xmlns="http://www.w3.org/2000/svg">
<path d="M0.0488635 49.2902L7.35128 29.7936H19.6587C21.2098 29.7936 22.4673 28.523 22.4673 26.9557V24.1178C22.4673 22.5504 21.2098 21.2798 19.6587 21.2798H7.35128L0.0488635 1.78326C-0.0927641 1.24452 0.0909037 0.671895 0.518357 0.319513C0.94581 -0.0328698 1.53786 -0.0997252 2.03175 0.148616L49.7783 24.271C50.2534 24.5116 50.5534 25.0026 50.5534 25.5396C50.5534 26.0765 50.2534 26.5675 49.7783 26.8081L2.03175 50.9305C1.53679 51.1802 0.942845 51.1131 0.514771 50.759C0.0866974 50.4048 -0.0957212 49.8298 0.0488635 49.2902Z" fill="#D83603"/>
</svg>
