<svg width="74" height="53" viewBox="0 0 74 53" fill="none" xmlns="http://www.w3.org/2000/svg">
<path d="M29.6 37.6272L48.803 26.4844L29.6 15.3415V37.6272ZM72.372 8.54438C72.853 10.2901 73.186 12.6301 73.408 15.6015C73.667 18.5729 73.778 21.1358 73.778 23.3644L74 26.4844C74 34.6187 73.408 40.5987 72.372 44.4244C71.447 47.7672 69.301 49.9215 65.971 50.8501C64.232 51.3329 61.05 51.6672 56.166 51.8901C51.356 52.1501 46.953 52.2615 42.883 52.2615L37 52.4844C21.497 52.4844 11.84 51.8901 8.029 50.8501C4.699 49.9215 2.553 47.7672 1.628 44.4244C1.147 42.6787 0.814 40.3387 0.592 37.3672C0.333 34.3958 0.222 31.8329 0.222 29.6044L0 26.4844C0 18.3501 0.592 12.3701 1.628 8.54438C2.553 5.20152 4.699 3.04723 8.029 2.11866C9.768 1.6358 12.95 1.30152 17.834 1.07866C22.644 0.81866 27.047 0.707232 31.117 0.707232L37 0.484375C52.503 0.484375 62.16 1.07866 65.971 2.11866C69.301 3.04723 71.447 5.20152 72.372 8.54438Z" fill="#D83603"/>
</svg>
